<svg xmlns="http://www.w3.org/2000/svg" viewBox="0 0 512 512">
  <defs>
    <radialGradient id="grad" cx="50%" cy="30%" r="70%">
      <stop offset="0%" style="stop-color:#FFCCB3"/>
      <stop offset="100%" style="stop-color:#FFB7C5"/>
    </radialGradient>
  </defs>
  
  <!-- Background -->
  <rect width="512" height="512" rx="115" fill="#FFB7C5"/>
  
  <!-- Circle with gradient -->
  <circle cx="256" cy="230" r="160" fill="url(#grad)"/>
  
  <!-- Dots grid -->
  <g fill="#FFF8F0">
    <!-- Row 1 -->
    <circle cx="156" cy="156" r="16"/>
    <circle cx="206" cy="156" r="16"/>
    <circle cx="256" cy="156" r="16" fill-opacity="0.5"/>
    <circle cx="306" cy="156" r="16"/>
    <circle cx="356" cy="156" r="16"/>
    
    <!-- Row 2 -->
    <circle cx="156" cy="206" r="16" fill-opacity="0.5"/>
    <circle cx="206" cy="206" r="16"/>
    <circle cx="256" cy="206" r="16"/>
    <circle cx="306" cy="206" r="16" fill-opacity="0.5"/>
    <circle cx="356" cy="206" r="16"/>
    
    <!-- Row 3 -->
    <circle cx="156" cy="256" r="16"/>
    <circle cx="206" cy="256" r="16" fill-opacity="0.5"/>
    <circle cx="256" cy="256" r="16"/>
    <circle cx="306" cy="256" r="16"/>
    <circle cx="356" cy="256" r="16" fill-opacity="0.5"/>
    
    <!-- Row 4 -->
    <circle cx="156" cy="306" r="16" fill-opacity="0.5"/>
    <circle cx="206" cy="306" r="16"/>
    <circle cx="256" cy="306" r="16" fill-opacity="0.5"/>
    <circle cx="306" cy="306" r="16"/>
    <circle cx="356" cy="306" r="16"/>
  </g>
  
  <!-- Year text -->
  <text x="256" y="400" font-family="-apple-system, BlinkMacSystemFont, sans-serif" 
        font-size="72" font-weight="bold" text-anchor="middle" fill="#FFF8F0">2026</text>
  
  <!-- Progress dots -->
  <g fill="#FFF8F0" fill-opacity="0.6">
    <circle cx="176" cy="440" r="8"/>
    <circle cx="216" cy="440" r="8"/>
    <circle cx="256" cy="440" r="8"/>
    <circle cx="296" cy="440" r="8"/>
    <circle cx="336" cy="440" r="8"/>
  </g>
</svg>
